<?xml version="1.0" encoding="UTF-8"?>
<svg id="uuid-f637cdcc-1702-4c0b-a7d4-cc4b2b741e15" data-name="svg12" xmlns="http://www.w3.org/2000/svg" xmlns:xlink="http://www.w3.org/1999/xlink" viewBox="0 0 88.56 28.88">
  <defs>
    <style>
      .uuid-090f1870-7257-4feb-b200-c867fd623e2d {
        fill: url(#uuid-650116ca-2d10-42a5-ac02-cf4d738a6932);
      }
    </style>
    <linearGradient id="uuid-650116ca-2d10-42a5-ac02-cf4d738a6932" x1="-122.62" y1="43.78" x2="-121.43" y2="43.78" gradientTransform="translate(2899.53 1031.24) scale(23.65 -23.2)" gradientUnits="userSpaceOnUse">
      <stop offset="0" stop-color="#ef4136"/>
      <stop offset="1" stop-color="#fbb040"/>
    </linearGradient>
  </defs>
  <g id="uuid-6c42752b-d4f1-419a-8b09-e9db01914ba9" data-name="SvgjsG10990">
    <path id="uuid-ac7c776e-5d1b-4a46-8973-3a09abe63227" data-name="path6" class="uuid-090f1870-7257-4feb-b200-c867fd623e2d" d="m16.79,2.04c-1.4,0-2.5,1.17-2.55,2.6,0,.01,0,.03,0,.05h0s0,.03,0,.04c0,.01,0,.02,0,.04v1.71s0,.05,0,.08c0,0,0,0,0,0,.03.79.32,1.51.79,2.06-.49.57-.79,1.33-.8,2.15,0,.02,0,.03,0,.05v6.11s-.01,0-.01,0c0,0,0,0,0,0v.05s0,.04,0,.06c0,0,0,0,0,0,.02.91.38,1.73.98,2.32-.61.6-.99,1.46-.99,2.39h0s0,.02,0,.03v4.35s0,0,0,0h0v.05s0,.04,0,.06c.05,1.41,1.16,2.57,2.54,2.57.87,0,1.63-.46,2.09-1.14.14.07.29.12.45.17,1.57.42,3.16-.6,3.55-2.22.02-.07.03-.13.04-.2,1.4.51,3.02-.07,3.79-1.46.62-1.1.57-2.42-.02-3.44.4-.35.75-.79,1.01-1.31.97-1.94.41-4.31-1.26-5.54.21-.44.33-.93.33-1.44,0-1.6-1.1-2.95-2.57-3.22.61-1.54.18-3.36-1.17-4.39-.78-.59-1.72-.79-2.61-.64-.37.06-.72.19-1.05.37-.17-1.29-1.22-2.31-2.52-2.31h0Zm-3.13,0c-.87,0-1.75.09-2.6.26h0s0,0,0,0c.01.02.02.04.03.07v.02c.58,1.33-.07,2.86-1.44,3.42-1.37.56-2.95-.07-3.53-1.4-.01-.03-.02-.06-.04-.09-1.48.97-2.76,2.21-3.75,3.66.58.28,1.04.74,1.29,1.32v.02c.58,1.33-.07,2.86-1.44,3.42-.61.25-1.29.27-1.91.06-.36,1.74-.36,3.54,0,5.28.03-.01.06-.03.09-.04,1.37-.56,2.95.06,3.53,1.38v.02c.58,1.33-.07,2.86-1.44,3.42-.03.01-.07.03-.11.04,1.02,1.47,2.32,2.72,3.84,3.7.28-.62.78-1.11,1.42-1.37,1.37-.56,2.95.06,3.53,1.38v.02c.27.62.28,1.31.03,1.94.82.15,1.65.23,2.49.23v-7.9c-2.22-.05-4.2-1.36-5.07-3.35-1.21-2.79.14-6,3.01-7.18.65-.27,1.35-.41,2.06-.43V2.05h0Zm3.13.7c.99,0,1.82.86,1.82,1.97,0,.04,0,.08.02.12-.2.18-.38.39-.54.62-.11.16-.07.38.1.49s.39.07.5-.1c0,0,0,0,0,0,.9-1.33,2.58-1.62,3.82-.68,1.24.95,1.53,2.82.63,4.16-.51.76-1.28,1.17-2.07,1.22-.08,0-.16,0-.24,0-.02-.82-.35-1.63-.98-2.22.36-.53.57-1.17.58-1.86,0-.19-.16-.36-.36-.36-.2,0-.37.15-.37.35,0,0,0,0,0,0-.01,1.44-1.1,2.55-2.4,2.53-1.3-.01-2.37-1.15-2.35-2.59,0-.01,0-.02,0-.04,0,0,0,0,0,0v-1.49s0-.17,0-.17c.01-1.1.84-1.95,1.82-1.95h0Zm2.61,6.12c.88.86.96,2.34.17,3.31-.06.08-.13.15-.2.21-.03.03-.07.05-.1.08-.03-.03-.05-.07-.08-.11-.48-.6-1.17-1.02-1.98-1.09-.01,0-.02,0-.04,0-.2,0-.37.15-.37.35,0,.19.14.34.33.36,1.19.11,2.1,1.24,1.99,2.56-.02.21-.06.4-.12.59-.07.18.04.39.23.45.19.06.4-.03.46-.22,0,0,0,0,0-.01.08-.24.13-.49.15-.75.04-.53-.04-1.03-.23-1.49.18-.14.36-.3.51-.49.33-.41.55-.88.64-1.37.85.04,1.69-.26,2.36-.83.06-.05.11-.1.17-.16.16-.16.32-.34.45-.54.01-.01.02-.03.03-.05,1.21.1,2.19,1.18,2.19,2.55,0,.37-.07.72-.2,1.03,0,.01-.01.02-.02.04-.44-.22-.89-.35-1.35-.39-.45-.04-.89,0-1.32.1-.14-.38-.4-.71-.77-.92-.06-.04-.13-.06-.21-.05-.2,0-.36.17-.35.37,0,.12.07.23.18.29.48.28.68.96.4,1.5-.04.08-.09.16-.15.22-.13.14-.12.37.03.5.15.13.38.12.51-.02,0,0,0-.01.01-.02.1-.11.18-.23.25-.37.13-.25.2-.53.2-.8.78-.22,1.63-.14,2.4.3,1.63.93,2.27,3.13,1.38,4.89-.44.87-1.16,1.47-1.97,1.73-.36.12-.72.09-1.11-.11s-.79-.57-1.16-1.12c0,0,0,0,0,0,.51-.39.85-1.01.88-1.71.01-.19-.14-.36-.34-.37,0,0,0,0-.01,0-.2,0-.37.15-.37.34-.04.87-.71,1.5-1.48,1.47-.12,0-.23-.03-.34-.06-.19-.06-.4.04-.46.22s.04.39.23.45c.17.06.35.09.54.1.25.01.49-.02.72-.1,0,.02.02.04.03.05.42.63.9,1.1,1.43,1.37.53.27,1.13.33,1.68.15.27-.09.53-.21.78-.36.42.8.45,1.83-.02,2.68-.66,1.18-1.99,1.59-3.11,1.05-.08-1.27-.91-2.41-2.16-2.76.1-.59-.02-1.21-.39-1.73-.07-.1-.19-.16-.31-.16-.2,0-.36.16-.36.36,0,.02,0,.03,0,.05,0,.01,0,.02,0,.03.01.04.03.08.06.12.48.68.35,1.67-.28,2.18-.1.08-.2.14-.31.19-.19.07-.28.28-.2.46.08.18.29.27.47.19,0,0,.02,0,.03-.01.17-.07.32-.17.47-.29.25-.2.45-.45.59-.72,0,0,0,0,0,0,1.16.31,1.89,1.59,1.59,2.87-.23.96-.95,1.61-1.78,1.75-.07.01-.14.02-.21.02-.14,0-.29,0-.43-.02-.07-.01-.14-.03-.22-.05-.11-.03-.22-.07-.33-.12.1-.28.15-.58.15-.9,0-.19-.16-.35-.36-.36-.19,0-.36.14-.37.33,0,0,0,.02,0,.02,0,1.04-.73,1.86-1.64,1.96-.06,0-.12,0-.18,0-.99,0-1.82-.86-1.82-1.97h0s0-4.22,0-4.22c0-.01,0-.03,0-.04-.06-1.41.93-2.58,2.2-2.67.14.36.37.7.69.96.15.12.31.21.47.29.18.08.4,0,.48-.17s0-.39-.17-.47c0,0,0,0-.01,0-.11-.05-.21-.11-.31-.19-.63-.5-.77-1.49-.28-2.18.12-.16.08-.38-.09-.49-.06-.04-.14-.07-.22-.06-.12,0-.23.06-.3.16-.31.44-.45.96-.42,1.47-.44.05-.85.19-1.22.41-.51-.47-.84-1.18-.83-1.98v-3.02s.01-3.06.01-3.06c0,0,0-.02,0-.03,0-.66.22-1.27.6-1.72.5.37,1.1.59,1.76.6.81,0,1.54-.31,2.09-.83h0Z"/>
  </g>
  <g>
    <path d="m33.54,21.94c-.1-1.85-.21-3.33-.33-4.44.83.43,1.56.74,2.21.9.65.17,1.21.25,1.7.25.64,0,1.15-.11,1.53-.33.38-.22.57-.55.57-.98,0-.15-.02-.29-.06-.42-.04-.13-.11-.29-.21-.46-.1-.17-.25-.35-.44-.55l-2.08-2.13c-.49-.49-.83-.84-1.02-1.05-.39-.44-.7-.85-.91-1.24-.22-.38-.38-.77-.48-1.17-.1-.39-.15-.81-.15-1.26,0-.53.08-1.05.24-1.56.16-.51.4-.98.71-1.43s.74-.82,1.26-1.15,1.08-.54,1.68-.66c.6-.12,1.21-.18,1.85-.18,1.25,0,2.6.17,4.07.51.02.6.05,1.15.08,1.65.03.5.1,1.37.21,2.62-.68-.32-1.3-.54-1.86-.67s-1.04-.19-1.45-.19c-.58,0-1.05.13-1.43.38-.38.25-.57.56-.57.94,0,.17.03.34.09.51.06.16.17.36.33.58s.38.46.64.73c.27.26.68.66,1.25,1.18l.8.74c.24.23.49.5.76.82.27.32.51.64.71.95.2.31.35.6.46.86.11.26.19.52.24.79.05.26.08.55.08.85,0,.78-.16,1.53-.48,2.23-.32.71-.77,1.29-1.35,1.74-.58.46-1.22.77-1.92.96-.7.18-1.43.27-2.21.27-1.19,0-2.7-.2-4.52-.61Z"/>
    <path d="m45.14,28.16c-.23-2.07-.38-3.36-.46-3.87.46.26.88.44,1.23.53.36.09.67.14.92.14.27,0,.53-.04.77-.13.24-.09.43-.19.57-.32.14-.13.29-.32.46-.58.17-.26.29-.48.37-.67.08-.19.16-.45.24-.8l-2.08-7.41-1.78-6.14c1.1.02,1.87.03,2.31.03.52,0,1.22,0,2.11-.03.14.67.4,1.82.78,3.46.38,1.64.66,2.92.83,3.85.1.51.19,1.16.28,1.95l.23-1.04c.07-.28.16-.59.25-.95.1-.36.22-.78.36-1.28l.72-2.37,1.19-3.63c.92.02,1.62.03,2.09.03.41,0,1.15,0,2.21-.03l-2.13,5.67-3.86,10.53c-.25.59-.49,1.06-.72,1.41-.21.31-.45.59-.7.82-.24.22-.49.4-.76.55-.37.2-.77.36-1.22.47-.49.12-.98.18-1.48.18-.23,0-.53-.02-.91-.06s-.68-.08-.91-.12c-.23-.04-.54-.11-.92-.21Z"/>
    <path d="m59.34,22.21c.21-1.97.38-4.14.49-6.53.11-2.38.18-4.63.2-6.76.89.02,1.65.03,2.29.03.75,0,1.46,0,2.15-.03l-.11,1.77c.24-.32.45-.57.63-.76s.4-.37.66-.55c.26-.18.54-.32.83-.44.29-.11.62-.2.97-.27.35-.06.72-.1,1.1-.1.53,0,1.05.07,1.55.2.5.13.93.33,1.27.57.34.25.62.56.85.92.23.37.38.77.45,1.19.07.43.11.86.11,1.31,0,.33-.03,1.04-.09,2.13l-.19,4.71c-.04.93-.06,1.79-.06,2.58-.74-.02-1.44-.03-2.09-.03-.88,0-1.68,0-2.4.03.07-.79.14-1.96.21-3.52.07-1.56.11-2.65.11-3.29,0-.98-.16-1.66-.48-2.05-.32-.39-.72-.58-1.21-.58-.43,0-.83.17-1.21.49-.38.33-.67.81-.88,1.44-.21.63-.35,1.66-.44,3.1s-.14,2.91-.17,4.4c-.74-.02-1.46-.03-2.16-.03-.74,0-1.54,0-2.4.03Z"/>
    <path d="m81.41,8.59c.91,0,1.79.17,2.64.49.84.33,1.56.8,2.14,1.43.58.62,1.01,1.34,1.29,2.17.28.83.41,1.72.41,2.67s-.12,1.81-.37,2.65-.67,1.62-1.25,2.36-1.34,1.28-2.25,1.65-1.87.55-2.89.55c-.94,0-1.83-.16-2.7-.48-.86-.32-1.58-.79-2.16-1.41-.58-.62-1.01-1.35-1.3-2.21-.29-.86-.44-1.76-.44-2.71s.14-1.85.43-2.71.73-1.63,1.35-2.32c.62-.69,1.38-1.21,2.28-1.58.91-.37,1.85-.55,2.83-.55Zm-.08,3.83c-.47,0-.89.14-1.26.43-.37.29-.65.7-.83,1.26-.19.55-.28,1.15-.28,1.8,0,.95.2,1.69.61,2.19.41.51.91.76,1.53.76.46,0,.88-.15,1.25-.44.37-.29.65-.72.83-1.29.19-.57.28-1.18.28-1.83,0-.54-.07-1.02-.22-1.46s-.39-.78-.72-1.04c-.34-.26-.73-.39-1.18-.39Z"/>
  </g>
</svg>